# xmcd CD database file
#
# Track frame offsets:
#	150
#	24405
#	51192
#	74382
#	99287
#	125167
#	152517
#	174662
#	194455
#	200345
#	227065
#	246587
#
# Disc length: 3439 seconds
#
# Revision: 0
# Processed by: cddbd v1.5.1PL0 Copyright (c) Steve Scherf et al.
# Submitted via: CDex 1.51
#
DISCID=a60d6d0c
DTITLE=Avery Sharpe - Extended Family III
DYEAR=2001
DGENRE=Jazz
TTITLE0=Family Values
TTITLE1=Parental Love
TTITLE2=I Am My Sister's Keeper
TTITLE3=Stone Soul Jester
TTITLE4=A Father's Pride
TTITLE5=Blood Is Thicker Than Mud
TTITLE6=Reunion
TTITLE7=Always Expect The Best From Yourself
TTITLE8=Don't Be Afraid To Ask For Help
TTITLE9=They Are Watching
TTITLE10=We're All In This
TTITLE11=I Am My Brother's Keeper
EXTD=YEAR: 2001
EXTT0=
EXTT1=
EXTT2=
EXTT3=
EXTT4=
EXTT5=
EXTT6=
EXTT7=
EXTT8=
EXTT9=
EXTT10=
EXTT11=
PLAYORDER=
